<?xml version="1.0" encoding="utf-8"?>
<!-- Generator: Adobe Illustrator 16.0.0, SVG Export Plug-In . SVG Version: 6.00 Build 0)  -->
<!DOCTYPE svg PUBLIC "-//W3C//DTD SVG 1.1//EN" "http://www.w3.org/Graphics/SVG/1.1/DTD/svg11.dtd">
<svg version="1.1" id="Layer_1" xmlns="http://www.w3.org/2000/svg" xmlns:xlink="http://www.w3.org/1999/xlink" x="0px" y="0px"
	 width="1103.945px" height="443.978px" viewBox="0 0 1103.945 443.978" enable-background="new 0 0 1103.945 443.978"
	 xml:space="preserve">
<g>
	<path fill="none" d="M51.752,42.781c0,3.511,0.731,8.045,4.242,11.043c-9.8,1.609-16.163,10.678-16.163,18.43
		c0,4.827,2.486,10.604,9.361,10.604c7.752,0,16.017-7.386,19.893-15.724l1.024,0.731c-5.12,9.946-13.018,17.479-22.818,17.479
		c-8.776,0-14.261-6.07-14.261-13.311c0-8.996,8.411-17.918,18.942-18.942c-3.803-3.145-5.558-7.459-5.558-11.555
		c0-7.752,6.363-15.139,15.066-15.139c5.412,0,8.337,2.853,8.337,7.899c0,5.485-3.438,11.043-5.851,11.043
		c-1.097,0-2.121-1.097-2.706-2.34c3.437-2.999,6.143-6.363,6.143-10.166c0-2.999-1.755-4.754-5.192-4.754
		C55.409,28.081,51.752,34.81,51.752,42.781z"/>
	<path fill="none" d="M73.545,65.819c-0.585,2.633-0.951,5.193-0.951,7.387c0,3.803,1.097,5.631,3.218,5.631
		c3.876,0,7.972-5.997,10.532-11.702l1.097,0.585c-3.876,8.337-8.484,13.457-13.75,13.457c-4.169,0-5.851-3.218-5.851-7.533
		c0-14.042,17.772-47.319,22.745-47.319c1.536,0,2.414,3.364,2.414,5.412C93,38.247,84.223,56.97,73.545,65.819z M74.204,63.333
		c8.484-8.557,16.529-25.012,16.529-29.913c0-0.951-0.292-1.17-0.512-1.17C88.246,32.25,78.226,49.217,74.204,63.333z"/>
	<path fill="none" d="M88.903,71.304c-0.219,0.951-0.292,1.901-0.292,2.633c0,2.999,1.243,6.144,5.778,6.144
		c6.216,0,12.726-5.924,16.382-12.945l0.877,0.658c-3.949,8.776-11.555,14.408-18.796,14.408c-5.924,0-8.922-3.729-8.922-8.483
		c0-8.703,9.946-21.063,18.576-21.063c2.268,0,4.535,0.877,4.535,4.461C107.041,64.576,97.241,70.5,88.903,71.304z M89.269,69.915
		c5.192-1.828,14.554-7.021,14.554-13.311c0-1.097-0.292-1.682-1.536-1.682C97.606,54.922,91.244,62.967,89.269,69.915z"/>
	<path fill="none" d="M132.784,65.307c0,1.682-4.242,6.655-4.242,10.166c0,1.462,0.731,3.218,2.486,3.218
		c2.633,0,7.313-3.803,11.702-11.556l0.731,0.731c-3.072,7.899-9.288,13.311-14.481,13.311c-3.583,0-5.266-2.56-5.266-5.119
		c0-0.585,0.073-1.316,0.219-2.121c-4.242,5.631-7.459,8.484-11.043,8.484c-3.071,0-5.412-1.975-5.412-6.07
		c0-8.703,10.75-22.453,20.258-22.453c3.803,0,6.655,2.194,6.655,5.485c0,2.413-1.463,3.145-3.583,3.145
		c0.219-0.804,0.366-1.755,0.366-2.56c0-2.194-0.951-4.096-3.584-4.096c-6.875,0-15.065,13.603-15.065,20.697
		c0,1.975,0.658,2.853,1.975,2.853c4.534,0,11.774-10.678,15.358-15.944C130.736,63.625,132.784,64.21,132.784,65.307z"/>
	<path fill="none" d="M143.753,60.48c0.585-0.658,1.975-1.536,3.364-1.536c1.316,0,1.975,0.731,1.975,1.901
		c0,1.536-1.024,5.631-2.34,9.654c3.876-5.924,9.654-12.872,15.212-12.872c3.803,0,5.412,3.291,5.412,6.582
		c0,4.535-2.999,7.972-2.999,11.556c0,2.047,0.951,2.779,2.194,2.779c3.657,0,7.533-5.997,10.239-11.409l0.804,0.951
		c-3.071,7.167-7.167,12.36-12.652,12.36c-3.437,0-5.119-1.975-5.119-4.681c0-2.999,2.121-6.729,2.121-10.166
		c0-2.706-1.243-3.583-2.925-3.583c-6.07,0-12.799,11.628-16.602,18.064c-1.536,0-3.072-0.512-3.876-1.609
		C138.561,77.594,143.68,66.843,143.753,60.48z"/>
	<path fill="none" d="M199.92,70.792c3.803,0,9.435-8.557,11.189-14.993c-0.438-0.438-0.731-1.024-0.731-1.755
		c0-2.926,2.267-4.974,3.071-4.974c1.024,0,1.024,1.244,1.024,1.755c0,0.512-0.804,2.414-0.804,2.706
		c0,2.706,7.459,3.949,7.459,10.166c0,4.461-3.657,9.288-3.657,12.36c0,1.755,1.024,2.194,2.194,2.194
		c4.607,0,10.604-6.655,12.433-10.897l0.951,0.731c-2.779,6.216-9.069,12.798-15.285,12.798c-3.292,0-5.339-1.901-5.339-4.753
		c0-4.315,4.022-9.8,4.022-13.677c0-3.145-2.267-4.242-4.095-5.558c-2.194,6.655-7.313,15.651-12.872,15.651
		c-2.779,0-5.046-1.097-6.216-3.364c-3.072,7.167-7.679,12.141-12.799,12.141c-3.73,0-5.851-2.633-5.851-6.363
		c0-7.752,8.996-21.721,17.699-21.721c1.828,0,2.706,0.658,3.145,1.536c0.146-0.073,0.292-0.073,0.512-0.073
		c1.828,0,2.486,1.975,2.486,2.852c0,1.829-2.852,5.339-2.852,9.215C195.605,69.476,196.848,70.792,199.92,70.792z M192.533,66.916
		c-0.292-1.17-0.439-2.486-0.439-4.168c0-3.292,0.585-5.412,1.39-6.656c-8.264,0-14.188,12.799-14.188,18.357
		c0,2.267,1.024,3.729,2.779,3.729C185.366,78.179,189.9,73.206,192.533,66.916z"/>
	<path fill="none" d="M287.679,52.362c1.902,0.073,3.73,0.292,5.485,0.292c-2.194,2.267-4.242,2.34-6.144,2.34
		c-0.877,3.583-1.682,7.021-2.267,10.02c-1.755,8.337-2.414,14.115-2.414,17.699c0,1.17,0.073,1.975,0.146,2.633
		c-3.803-0.366-5.046-1.975-5.046-5.705c0-2.56,0.585-6.509,1.755-11.043c0.731-2.925,2.194-8.045,3.876-13.53
		c-8.922,0.073-12.726,0.146-17.041,0.512c-3.583,11.336-7.24,23.111-7.826,25.085c-1.023,3.364-3.51,4.681-5.046,4.681
		c1.17-6.729,2.852-13.384,8.045-29.327l-4.827,0.512c0.073-2.414,2.487-3.73,6.07-4.461c1.682-5.12,3.73-11.19,6.216-18.357
		c0.366-1.097,1.024-2.852,1.024-4.315c0-0.731-0.146-1.024-1.024-1.024c-4.754,0-9.069,8.923-9.069,13.75
		c0,0.878,0.146,1.829,0.366,2.487c-3.218,0-4.388-1.829-4.388-4.169c0-6.655,9.142-14.115,14.627-14.115
		c2.633,0,3.364,1.755,3.364,3.511c0,1.097-0.293,2.194-0.585,3.145l-5.705,18.576c1.316-0.073,2.779-0.146,4.242-0.146
		c4.607,0,8.703,0.293,12.433,0.659c2.852-9.361,6.07-19.162,7.386-21.941c0.512-1.097,1.902-3.803,4.022-3.803
		C293.311,31.738,290.239,42.416,287.679,52.362z"/>
	<path fill="none" d="M314.446,65.307c0,1.682-4.242,6.655-4.242,10.166c0,1.462,0.731,3.218,2.486,3.218
		c2.633,0,7.313-3.803,11.702-11.556l0.731,0.731c-3.072,7.899-9.288,13.311-14.481,13.311c-3.583,0-5.266-2.56-5.266-5.119
		c0-0.585,0.073-1.316,0.219-2.121c-4.242,5.631-7.459,8.484-11.043,8.484c-3.071,0-5.412-1.975-5.412-6.07
		c0-8.703,10.75-22.453,20.258-22.453c3.803,0,6.655,2.194,6.655,5.485c0,2.413-1.462,3.145-3.583,3.145
		c0.219-0.804,0.366-1.755,0.366-2.56c0-2.194-0.951-4.096-3.584-4.096c-6.875,0-15.065,13.603-15.065,20.697
		c0,1.975,0.658,2.853,1.975,2.853c4.534,0,11.774-10.678,15.358-15.944C312.398,63.625,314.446,64.21,314.446,65.307z"/>
	<path fill="none" d="M323.075,69.695c1.316-2.56,3.803-7.679,5.924-13.896c-0.439-0.438-0.731-1.024-0.731-1.755
		c0-2.926,2.267-4.974,3.072-4.974c1.024,0,1.024,1.244,1.024,1.755c0,0.512-0.805,2.414-0.805,2.706
		c0,2.706,7.46,3.949,7.46,10.166c0,4.461-3.657,9.288-3.657,12.36c0,1.755,1.024,2.194,2.194,2.194
		c4.608,0,10.605-6.655,12.433-10.897l0.951,0.731c-2.779,6.216-9.068,12.798-15.285,12.798c-3.291,0-5.339-1.901-5.339-4.753
		c0-4.315,4.022-9.8,4.022-13.677c0-3.145-2.267-4.242-4.096-5.558c-2.267,5.778-4.973,11.409-6.509,14.042L323.075,69.695z"/>
	<path fill="none" d="M367.321,54.849c-7.899,0-14.847,13.676-14.847,19.308c0,2.194,1.024,3.511,2.633,3.511
		c3.949,0,11.117-7.898,15.797-20.112c5.412-14.115,11.994-31.229,16.017-31.229c0.805,0,1.463,0.731,1.463,1.682
		c0,4.608-16.821,31.375-16.821,45.856c0,2.779,0,4.096,1.682,4.096c2.999,0,8.191-4.168,11.263-10.824l0.878,0.658
		c-2.853,7.533-9.215,13.091-14.188,13.091c-3.657,0-4.827-2.925-4.827-5.485c0-1.682,0.512-4.461,1.389-7.826
		c-4.753,7.826-10.458,13.603-14.919,13.603c-2.487,0-5.485-1.828-5.485-6.143c0-8.118,10.605-22.379,19.674-22.379
		c2.047,0,3.218,0.731,3.218,2.267c0,0.366-0.073,0.658-0.146,1.024C369.588,55.214,368.637,54.849,367.321,54.849z"/>
	<path fill="none" d="M394.965,55.799c0,2.414-7.606,11.263-7.606,18.138c0,3.511,1.17,4.388,3.584,4.388
		c3.291,0,7.094-2.852,11.263-11.19l0.658,0.731c-2.852,8.411-8.703,13.018-14.408,13.018c-3.803,0-5.631-2.706-5.631-6.143
		c0-5.559,5.558-20.551,10.532-20.551C394.233,54.19,394.965,54.775,394.965,55.799z M394.233,44.976
		c0-2.048,2.999-3.803,5.339-3.803c1.463,0,2.414,0.585,2.414,2.267c0,1.829-2.414,3.95-4.754,3.95
		C395.623,47.389,394.233,46.658,394.233,44.976z"/>
	<path fill="none" d="M403.301,60.48c0.585-0.658,1.975-1.536,3.364-1.536c1.316,0,1.975,0.731,1.975,1.901
		c0,1.536-1.024,5.631-2.34,9.654c3.876-5.924,9.654-12.872,15.212-12.872c3.803,0,5.412,3.291,5.412,6.582
		c0,4.535-2.999,7.972-2.999,11.556c0,2.047,0.951,2.779,2.194,2.779c3.657,0,7.533-5.997,10.239-11.409l0.804,0.951
		c-3.071,7.167-7.167,12.36-12.652,12.36c-3.437,0-5.119-1.975-5.119-4.681c0-2.999,2.121-6.729,2.121-10.166
		c0-2.706-1.243-3.583-2.925-3.583c-6.07,0-12.799,11.628-16.602,18.064c-1.536,0-3.072-0.512-3.876-1.609
		C398.108,77.594,403.228,66.843,403.301,60.48z"/>
	<path fill="none" d="M453.689,56.312c-7.679,0-14.7,10.458-14.7,16.602c0,2.34,1.024,3.583,2.56,3.583
		c2.779,0,7.094-4.315,10.824-9.654l0.877-3.876c0.293-1.39,1.317-3.73,3.73-3.73c0.439,0,0.951,0.073,1.536,0.219
		c0,2.414-2.267,11.336-5.631,20.039c4.753-2.267,9.727-6.801,11.921-12.36l0.951,0.731c-2.267,6.583-9.142,11.556-13.676,13.75
		c-4.096,9.874-8.776,17.845-14.261,17.845c-2.121,0-4.242-1.244-4.242-4.242c0-5.924,8.118-9.8,14.262-12.872
		c1.316-3.364,2.56-7.313,3.73-12.067c-3.73,5.339-7.826,9.361-11.921,9.361c-3.51,0-5.485-2.852-5.485-7.094
		c0-10.166,11.482-18.942,19.381-18.942c2.779,0,3.949,1.097,3.949,2.34c0,0.877-0.658,1.39-0.878,1.463
		C456.103,56.677,455.152,56.312,453.689,56.312z M447.034,84.322c-5.778,2.925-11.189,6.07-11.189,10.239
		c0,1.536,0.731,2.56,1.755,2.56C439.501,97.121,443.158,93.684,447.034,84.322z"/>
	<path fill="none" d="M465.61,85.419c-0.878-0.512-1.243-1.536-1.243-2.706c0-2.999,2.267-7.826,4.461-7.826
		c0.951,0,1.829,0.951,1.829,2.048C467.95,79.788,466.926,82.567,465.61,85.419z"/>
</g>
<g>
	<path fill="none" d="M30.258,107.209h36.82c23.277,0,34.704,12.908,34.704,36.608v74.91c0,23.7-11.427,36.608-34.704,36.608h-36.82
		V107.209z M53.535,128.37v105.804h13.12c7.407,0,11.851-3.809,11.851-14.39v-77.025c0-10.58-4.444-14.389-11.851-14.389H53.535z"/>
	<path fill="none" d="M116.592,107.209h23.277v148.126h-23.277V107.209z"/>
	<path fill="none" d="M191.711,172.808h32.588v46.977c0,23.701-11.85,37.244-34.704,37.244c-22.854,0-34.704-13.543-34.704-37.244
		v-77.025c0-23.7,11.85-37.243,34.704-37.243c22.854,0,34.704,13.543,34.704,37.243v14.39h-22.007v-15.871
		c0-10.581-4.656-14.601-12.062-14.601s-12.062,4.021-12.062,14.601v79.988c0,10.581,4.655,14.39,12.062,14.39
		s12.062-3.809,12.062-14.39v-27.297h-10.581V172.808z"/>
	<path fill="none" d="M239.322,107.209h23.277v148.126h-23.277V107.209z"/>
	<path fill="none" d="M272.754,107.209h71.947v21.161h-24.335v126.965h-23.277V128.37h-24.335V107.209z"/>
	<path fill="none" d="M422.148,255.335H398.66l-4.021-26.874h-28.567l-4.021,26.874h-21.373l23.7-148.126h34.069L422.148,255.335z
		 M369.034,208.357h22.431l-11.215-74.909L369.034,208.357z"/>
	<path fill="none" d="M432.939,107.209h23.277v126.965h38.301v21.161h-61.578V107.209z"/>
</g>
<g>
	<path fill="none" d="M276.686,347.262c-14.802,0-21.357-7.401-21.357-19.031c0-31.719,27.278-47.577,47.789-47.577
		c7.189,0,12.688,5.074,12.688,10.995c0,6.344-6.132,12.477-12.688,12.477c-5.075,0-7.612-2.326-7.612-5.498
		c0-1.48,0.211-4.44,2.114-7.189c2.326,1.903,4.44,2.749,6.132,2.749c1.48,0,6.555-3.384,6.555-6.979c0-2.537-1.903-4.44-7.189-4.44
		c-13.533,0-35.948,39.331-35.948,53.921c0,4.864,4.229,8.036,9.516,8.036c18.185,0,48.423-11.842,75.067-48.213l1.692,1.48
		C329.338,331.825,300.157,347.262,276.686,347.262z"/>
	<path fill="none" d="M358.729,347.262c-6.978,0-11.207-5.709-11.418-15.647c-0.211-9.305,17.762-30.873,17.762-36.794
		c0-1.269,0-1.479-0.846-1.479c-4.441,0-5.709,6.555-13.322,6.555c-3.383,0-5.287-3.384-5.287-8.035
		c0-6.979,6.555-16.071,12.265-16.071c2.537,0,5.075,1.903,5.075,4.864c0,3.806-3.172,9.727-7.401,14.59
		c10.784-8.881,16.917-14.59,22.203-14.59c4.44,0,7.401,4.018,7.401,8.246c0,4.441-2.326,6.767-4.441,10.361l-16.705,28.547
		c-2.538,4.229-4.018,7.401-4.018,8.67c0,4.018,2.538,5.709,5.498,5.709c14.379,0,32.987-23.472,48.423-45.675l1.692,1.48
		C387.91,339.86,373.319,347.262,358.729,347.262z M357.883,278.961c-4.229,0-8.67,9.093-8.67,12.899
		c0,2.749,1.058,3.595,2.326,3.595c4.018-5.075,8.247-11.63,8.247-14.591C359.786,280.019,359.363,278.961,357.883,278.961z"/>
	<path fill="none" d="M450.077,347.262c-9.304,0-12.688-5.075-16.071-12.476c-7.401,9.938-13.745,12.476-20.088,12.476
		c-8.247,0-14.379-6.979-14.379-20.935c0-19.03,19.666-45.674,47.366-45.674c4.44,0,7.612,0.634,10.784,5.074
		c0,0,2.326-3.172,4.44-3.172c2.538,0,6.344,1.27,8.881,1.27c1.691,0,4.652-4.864,6.978-5.71l-27.701,52.019
		c-2.96,5.498-3.595,7.401-3.595,9.727c0,2.115,1.48,4.229,4.652,4.229c7.824,0,34.256-25.375,52.653-47.578l1.691,1.48
		C483.275,325.481,460.65,347.262,450.077,347.262z M450.077,284.459c-18.397,0-38.063,40.812-38.063,52.652
		c0,4.441,0.635,6.979,4.229,6.979c7.824,0,13.322-8.247,16.705-13.956c8.669-14.802,21.568-37.217,21.568-40.6
		C454.518,287.208,453.038,284.459,450.077,284.459z"/>
	<path fill="none" d="M526.625,288.266h11.63l-2.114,3.806h-15.014c-37.428,70.627-58.362,125.605-94.31,125.605
		c-12.053,0-20.934-8.247-20.934-19.031c0-10.996,9.516-22.203,20.088-22.203c5.286,0,10.361,5.075,10.361,10.784
		c0,5.498-5.287,9.938-11.63,9.938c-2.538,0-4.441-1.057-6.979-5.497c4.441-0.635,6.555-1.903,6.555-3.384
		c0-2.96-1.903-5.498-4.44-5.498c-3.806,0-10.996,8.882-10.996,17.763c0,8.247,8.458,14.802,17.974,14.802
		c27.066,0,40.388-55.401,77.816-123.279h-12.688l2.115-3.806h12.898c10.361-17.763,43.983-71.684,64.071-71.684
		c4.018,0,8.247,4.018,8.247,7.823C579.277,240.477,558.342,271.771,526.625,288.266z M567.435,219.965
		c-7.612,0-37.428,53.287-43.982,68.301c36.37-26.855,47.577-52.229,47.577-62.168C571.03,222.291,569.761,219.965,567.435,219.965z
		"/>
	<path fill="none" d="M585.622,324.636c-12.476,16.917-26.854,22.626-37.216,22.626c-6.133,0-11.208-6.344-11.208-13.956
		c0-5.921,1.692-9.093,4.441-14.591l16.705-33.621h-15.648l3.384-3.172h17.128c12.476-8.035,17.339-13.11,33.41-37.428h2.326
		l-21.357,37.428h15.859l-1.269,3.172h-15.859l-21.991,38.484c-2.538,4.441-4.864,8.036-4.864,11.208
		c0,2.749,2.749,8.035,5.71,8.035c8.458,0,22.202-11.842,28.335-19.877c0,0,14.167-17.974,20.3-26.433l1.691,1.48
		C598.309,309.411,585.622,324.636,585.622,324.636z"/>
	<path fill="none" d="M611.839,336.055c-4.863,5.709-13.11,11.63-23.683,11.63c-10.996,0-16.705-5.921-16.705-15.014
		c0-6.132,4.018-11.841,10.149-11.841c5.921,0,10.573,7.612,15.014,9.304c5.709-4.018,8.035-13.956,8.035-18.608
		c0-4.863-4.018-12.053-4.018-20.511c0-8.882,3.384-20.3,11.207-20.3c3.172,0,5.286,1.269,5.286,3.806
		c0,6.344-3.806,11.419-6.555,16.282c0,0,6.344,13.956,6.344,23.049c0,7.401-2.326,16.917-3.807,19.242
		c14.168-3.172,24.74-6.767,42.926-36.582l1.691,1.48C638.06,330.769,624.739,334.151,611.839,336.055z M583.082,324.636
		c-2.114,0-3.807,1.903-3.807,4.229c0,3.806,3.172,5.286,6.767,5.921c3.384,0.634,7.189-0.212,8.459-2.538
		C589.425,329.922,586.676,324.636,583.082,324.636z M612.051,272.617c-1.48,0-3.807,4.019-4.018,8.882
		c0,2.114,0.211,4.651,1.269,6.767c4.44-6.344,5.286-9.516,5.286-13.322C614.588,273.887,613.954,272.406,612.051,272.617z"/>
	<path fill="none" d="M744.422,326.75c-10.573,11.842-17.551,20.512-27.489,20.512c-6.979,0-12.688-5.709-12.688-13.321
		c0-7.401,25.375-38.274,25.375-44.406c0-2.326-1.48-3.595-3.807-3.595c-3.806,0-16.282,13.321-24.74,23.472
		c-1.903,2.326-14.591,27.7-17.763,32.775c-1.479,2.326-4.018,3.172-5.709,3.172c-2.537,0-5.075-1.903-6.978-1.903
		c-1.692,0-7.612,6.344-7.612,6.344s31.507-58.15,31.507-60.899c0-1.691-0.635-2.96-2.326-2.96c-5.71,0-15.647,10.572-24.106,19.454
		c-11.63,12.265-20.511,39.965-25.798,39.965c-4.018,0-6.978-1.903-8.881-1.903c-1.48,0-7.612,6.344-7.612,6.344l29.604-55.612
		c4.441-8.459,5.71-11.631,9.305-11.631s6.344,1.27,8.246,1.27c1.692,0,5.075-5.287,7.613-5.71l-10.785,20.3
		c14.803-15.225,23.472-17.762,30.027-17.762c10.572,0,9.516,14.59,9.516,14.59c12.053-11.207,15.225-14.59,25.163-14.59
		c5.286,0,9.728,5.074,9.728,10.361c0,0.846-1.27,3.595-3.596,7.4l-20.511,33.199c-1.48,2.326-3.172,4.651-3.172,6.978
		c0,2.961,2.326,5.075,4.229,5.075c2.325,0,12.476-8.458,21.779-18.608l25.587-28.547l1.691,1.48L744.422,326.75z"/>
	<path fill="none" d="M804.689,347.262c-9.305,0-12.688-5.075-16.071-12.476c-7.4,9.938-13.744,12.476-20.088,12.476
		c-8.247,0-14.379-6.979-14.379-20.935c0-19.03,19.665-45.674,47.366-45.674c4.44,0,7.612,0.634,10.784,5.074
		c0,0,2.326-3.172,4.44-3.172c2.537,0,6.344,1.27,8.881,1.27c1.692,0,4.652-4.864,6.979-5.71L804.9,330.134
		c-2.96,5.498-3.595,7.401-3.595,9.727c0,2.115,1.48,4.229,4.652,4.229c7.824,0,34.256-25.375,52.652-47.578l1.692,1.48
		C837.887,325.481,815.261,347.262,804.689,347.262z M804.689,284.459c-18.396,0-38.063,40.812-38.063,52.652
		c0,4.441,0.635,6.979,4.229,6.979c7.823,0,13.321-8.247,16.705-13.956c8.67-14.802,21.568-37.217,21.568-40.6
		C809.129,287.208,807.649,284.459,804.689,284.459z"/>
	<path fill="none" d="M866.646,336.055c-4.863,5.709-13.11,11.63-23.683,11.63c-10.996,0-16.705-5.921-16.705-15.014
		c0-6.132,4.018-11.841,10.149-11.841c5.921,0,10.573,7.612,15.014,9.304c5.709-4.018,8.035-13.956,8.035-18.608
		c0-4.863-4.018-12.053-4.018-20.511c0-8.882,3.384-20.3,11.207-20.3c3.172,0,5.286,1.269,5.286,3.806
		c0,6.344-3.806,11.419-6.555,16.282c0,0,6.344,13.956,6.344,23.049c0,7.401-2.326,16.917-3.807,19.242
		c14.168-3.172,24.74-6.767,42.926-36.582l1.691,1.48C892.867,330.769,879.545,334.151,866.646,336.055z M837.888,324.636
		c-2.114,0-3.807,1.903-3.807,4.229c0,3.806,3.172,5.286,6.767,5.921c3.384,0.634,7.189-0.212,8.459-2.538
		C844.232,329.922,841.483,324.636,837.888,324.636z M866.858,272.617c-1.48,0-3.807,4.019-4.018,8.882
		c0,2.114,0.211,4.651,1.269,6.767c4.44-6.344,5.286-9.516,5.286-13.322C869.395,273.887,868.76,272.406,866.858,272.617z"/>
	<path fill="none" d="M942.347,324.636c-12.476,16.917-26.854,22.626-37.216,22.626c-6.133,0-11.208-6.344-11.208-13.956
		c0-5.921,1.692-9.093,4.441-14.591l16.705-33.621h-15.648l3.384-3.172h17.128c12.476-8.035,17.339-13.11,33.41-37.428h2.326
		l-21.357,37.428h15.859l-1.269,3.172h-15.859l-21.992,38.484c-2.537,4.441-4.863,8.036-4.863,11.208
		c0,2.749,2.749,8.035,5.71,8.035c8.458,0,22.202-11.842,28.335-19.877c0,0,14.167-17.974,20.3-26.433l1.691,1.48
		C955.035,309.411,942.347,324.636,942.347,324.636z"/>
	<path fill="none" d="M964.759,347.262c-11.842,0-18.608-9.304-18.608-19.031c0-29.393,32.564-47.577,48.424-47.577
		c6.555,0,12.053,5.074,12.053,11.63c0,20.723-36.582,28.97-43.771,28.97c-2.326,5.074-3.807,7.612-3.807,14.802
		c0,4.44,1.48,7.823,5.71,7.823c21.146,0,53.075-34.679,60.688-47.366l1.691,1.48C1020.794,308.565,988.442,347.262,964.759,347.262
		z M991.614,283.402c-6.132,0-15.859,11.418-26.644,32.775c11.842,0,31.084-20.089,31.084-27.912
		C996.054,285.094,994.575,283.402,991.614,283.402z"/>
	<path fill="none" d="M1032.424,347.262c-6.979,0-11.208-5.709-11.419-15.647c-0.212-9.305,17.762-30.873,17.762-36.794
		c0-1.269,0-1.479-0.846-1.479c-4.44,0-5.709,6.555-13.321,6.555c-3.384,0-5.286-3.384-5.286-8.035
		c0-6.979,6.555-16.071,12.264-16.071c2.538,0,5.075,1.903,5.075,4.864c0,3.806-3.172,9.727-7.4,14.59
		c10.784-8.881,16.916-14.59,22.202-14.59c4.44,0,7.401,4.018,7.401,8.246c0,4.441-2.326,6.767-4.44,10.361l-16.705,28.547
		c-2.538,4.229-4.018,7.401-4.018,8.67c0,4.018,2.537,5.709,5.497,5.709c14.38,0,32.987-23.472,48.424-45.675l1.691,1.48
		C1061.605,339.86,1047.014,347.262,1032.424,347.262z M1031.578,278.961c-4.229,0-8.669,9.093-8.669,12.899
		c0,2.749,1.057,3.595,2.325,3.595c4.019-5.075,8.247-11.63,8.247-14.591C1033.481,280.019,1033.058,278.961,1031.578,278.961z"/>
</g>
</svg>
