<?xml version="1.0" encoding="utf-8"?>
<!-- Generator: Adobe Illustrator 16.0.0, SVG Export Plug-In . SVG Version: 6.00 Build 0)  -->
<!DOCTYPE svg PUBLIC "-//W3C//DTD SVG 1.1//EN" "http://www.w3.org/Graphics/SVG/1.1/DTD/svg11.dtd">
<svg version="1.1" id="Layer_1" xmlns="http://www.w3.org/2000/svg" xmlns:xlink="http://www.w3.org/1999/xlink" x="0px" y="0px"
	 width="1103.945px" height="443.977px" viewBox="0 0 1103.945 443.977" enable-background="new 0 0 1103.945 443.977"
	 xml:space="preserve">
<g>
	<path fill="none" d="M30.258,107.209h36.82c23.277,0,34.704,12.908,34.704,36.608v74.91c0,23.699-11.427,36.607-34.704,36.607
		h-36.82V107.209z M53.535,128.37v105.804h13.12c7.407,0,11.851-3.809,11.851-14.39v-77.025c0-10.58-4.444-14.389-11.851-14.389
		H53.535z"/>
	<path fill="none" d="M116.592,107.209h23.277v148.125h-23.277V107.209z"/>
	<path fill="none" d="M191.711,172.808h32.588v46.977c0,23.701-11.85,37.244-34.704,37.244s-34.704-13.543-34.704-37.244V142.76
		c0-23.7,11.85-37.243,34.704-37.243s34.704,13.543,34.704,37.243v14.39h-22.007v-15.871c0-10.581-4.656-14.601-12.062-14.601
		s-12.062,4.021-12.062,14.601v79.988c0,10.581,4.655,14.39,12.062,14.39c7.407,0,12.062-3.809,12.062-14.39V193.97h-10.581V172.808
		z"/>
	<path fill="none" d="M239.322,107.209h23.277v148.125h-23.277V107.209L239.322,107.209z"/>
	<path fill="none" d="M272.754,107.209h71.947v21.161h-24.335v126.964h-23.277V128.37h-24.335V107.209z"/>
	<path fill="none" d="M422.148,255.334H398.66l-4.021-26.873h-28.566l-4.021,26.873h-21.373l23.7-148.125h34.069L422.148,255.334z
		 M369.034,208.357h22.431l-11.215-74.909L369.034,208.357z"/>
	<path fill="none" d="M432.939,107.209h23.276v126.965h38.301v21.16h-61.577V107.209z"/>
</g>
</svg>
