<?xml version="1.0" encoding="utf-8"?>
<!-- Generator: Adobe Illustrator 16.0.0, SVG Export Plug-In . SVG Version: 6.00 Build 0)  -->
<!DOCTYPE svg PUBLIC "-//W3C//DTD SVG 1.1//EN" "http://www.w3.org/Graphics/SVG/1.1/DTD/svg11.dtd">
<svg version="1.1" id="Layer_1" xmlns="http://www.w3.org/2000/svg" xmlns:xlink="http://www.w3.org/1999/xlink" x="0px" y="0px"
	 width="1103.945px" height="443.977px" viewBox="0 0 1103.945 443.977" enable-background="new 0 0 1103.945 443.977"
	 xml:space="preserve">
<g>
	<path fill="none" d="M131.443,208.988v19.81c0,23.855-11.929,37.487-34.932,37.487c-23.004,0-34.932-13.632-34.932-37.487v-77.531
		c0-23.855,11.928-37.487,34.932-37.487c23.003,0,34.932,13.632,34.932,37.487v14.483h-22.152v-15.975
		c0-10.649-4.686-14.697-12.141-14.697s-12.141,4.048-12.141,14.697v80.513c0,10.65,4.686,14.484,12.141,14.484
		s12.141-3.834,12.141-14.484v-21.3H131.443z"/>
	<path fill="none" d="M194.701,264.58c-1.277-3.834-2.13-6.177-2.13-18.317v-23.43c0-13.846-4.687-18.957-15.336-18.957h-8.094
		v60.704h-23.43V115.482h35.357c24.282,0,34.719,11.289,34.719,34.293v11.715c0,15.336-4.899,25.347-15.336,30.246
		c11.715,4.898,15.549,16.188,15.549,31.736v23.004c0,7.241,0.213,12.566,2.556,18.104H194.701z M169.142,136.781v45.795h9.159
		c8.732,0,14.058-3.834,14.058-15.762v-14.697c0-10.649-3.621-15.336-11.929-15.336H169.142z"/>
	<path fill="none" d="M254.766,178.317h32.162v21.3h-32.162v43.664h40.469v21.3h-63.898V115.482h63.898v21.3h-40.469V178.317z"/>
	<path fill="none" d="M385.547,264.58h-23.644l-4.047-27.051h-28.755l-4.047,27.051h-21.513l23.856-149.099h34.292L385.547,264.58z
		 M332.084,217.295h22.578l-11.289-75.401L332.084,217.295z"/>
	<path fill="none" d="M381.501,115.482h72.419v21.3h-24.494V264.58h-23.43V136.781h-24.495V115.482z"/>
	<path fill="none" d="M464.143,115.482h23.43V264.58h-23.43V115.482z"/>
	<path fill="none" d="M539.967,237.104l17.893-121.622h21.513L556.368,264.58h-34.932l-23.004-149.099h23.644L539.967,237.104z"/>
	<path fill="none" d="M613.664,178.317h32.162v21.3h-32.162v43.664h40.469v21.3h-63.898V115.482h63.898v21.3h-40.469V178.317z"/>
</g>
</svg>
